<?xml version="1.0" standalone="no"?><!DOCTYPE svg PUBLIC "-//W3C//DTD SVG 1.1//EN" "http://www.w3.org/Graphics/SVG/1.1/DTD/svg11.dtd"><svg t="1582527570507" class="icon" viewBox="0 0 1024 1024" version="1.1" xmlns="http://www.w3.org/2000/svg" p-id="15426" xmlns:xlink="http://www.w3.org/1999/xlink" width="28" height="28"><defs><style type="text/css"></style></defs><path d="M426.542817 0.599756h170.530695C710.527404-1.899228 833.477436 32.886635 911.045912 112.954095c80.167419 77.568476 114.853323 200.518508 112.454298 313.972399v170.530696c2.399025 113.453892-32.286878 236.403924-112.454298 313.972399-77.568476 80.167419-200.518508 114.853323-313.9724 112.454298H426.542817c-113.453892 2.399025-236.403924-32.286878-313.9724-112.454298C32.402998 833.961073-2.282906 711.011041 0.116119 597.557149V427.026454C-2.282906 313.472603 32.402998 190.52257 112.570417 112.954095 190.138893 32.886635 313.088925-1.899228 426.542817 0.599756z" fill="#F145E7" p-id="15427"></path><path d="M112.570417 112.954095C36.90117 186.224317 1.715469 299.878128 0.116119 407.834254c137.943939 0 249.79848-111.954501 249.798481-249.89844 0-42.782613-10.795613-83.066241-29.687935-118.251942-40.583507 17.892728-77.568476 42.182857-107.656248 73.270223z" fill="#FFFFFF" opacity=".5" p-id="15428"></path><path d="M746.31286 758.291825c-7.896791 4.098334-17.392931 3.798456-25.089803-0.799675-15.093866-9.096303-46.48111-24.390088-71.271035-13.894353-28.388463 11.995125-81.466891 48.880135-119.151576 48.880135-49.379932 0-93.162138-30.587569-131.446579-46.48111-47.580663-19.791956-84.265754-9.096303-97.560351-3.698497-4.198294 1.699309-8.696466 2.099147-13.094678 1.199513-36.485172-7.896791-49.57985-33.68631-44.082085-46.681029 0 0 21.191388-51.978875 45.281597-95.361244 14.793988-26.689153 37.084928-53.278347 37.084929-53.278348 49.67981-54.277941 72.570507-65.373432 72.570506-65.373431 18.092647-12.594881 26.889072-45.281597 19.891916-66.273067l-81.866729-160.334839c-4.79805-9.396181 1.799269-20.691591 12.394963-21.091428l73.470141-2.998781c1.299472-0.099959 2.598944 0 3.798457 0.299878 3.998375 0.699716 7.396994 3.098741 9.895978 6.197481l42.882572 55.377494c19.29216 18.392525 33.786269 18.292566 52.978469-0.199918l41.783019-54.977657c2.698903-3.498578 6.497359-5.997563 10.895572-6.497359 0.999594-0.099959 1.899228-0.199919 2.898822-0.09996l64.273879 2.998781c10.195856 0.499797 16.793175 11.095491 12.594881 20.391713l-70.671278 159.935002c-7.297034 21.091428 8.296628 52.378713 26.689153 65.073553 0 0 14.49411 10.295816 68.971969 66.672904 0 0 28.588382 26.989031 48.680216 62.074772 21.091428 36.78505 35.885416 80.767176 38.784238 89.563601 0.299878 0.899634 0.699716 1.699309 1.199513 2.598944 4.898009 9.396181-7.197075 43.382369-32.786676 56.776925zM434.339648 505.494564L380.861382 578.065071l26.289316 15.193825 40.983344-79.767582-13.794394-7.99675z" fill="#FFFFFF" p-id="15429"></path><path d="M780.998764 698.915956c-2.898822-8.796425-17.69281-52.87851-38.784238-89.563601-10.995531-19.1922-24.490047-35.885416-34.485985-47.180825-12.994719 18.692403-20.591631 41.383182-20.591631 65.873229 0 52.77855 35.28566 97.260473 83.466079 111.254785 10.595694-14.594069 14.793988-31.587163 11.495328-37.884603-0.399838-0.799675-0.799675-1.59935-1.099553-2.498985z" fill="#F145E7" opacity=".5" p-id="15430"></path></svg>