<?xml version="1.0" standalone="no"?><!DOCTYPE svg PUBLIC "-//W3C//DTD SVG 1.1//EN" "http://www.w3.org/Graphics/SVG/1.1/DTD/svg11.dtd"><svg t="1582527845049" class="icon" viewBox="0 0 1024 1024" version="1.1" xmlns="http://www.w3.org/2000/svg" p-id="18126" xmlns:xlink="http://www.w3.org/1999/xlink" width="28" height="28"><defs><style type="text/css"></style></defs><path d="M510.445916 0.14128c-20.626932 0-38.569536 0-56.653422 2.543047-46.339956 5.086093-89.995585 17.942605-131.108167 33.483443 0 0 344.582781 339.496689 352.353201 352.353201V28.397351C621.068433 10.454746 567.099338 0.14128 510.445916 0.14128m360.12362 149.192053c-12.856512-12.856512-28.256071-25.713024-43.655629-38.569536-36.02649-28.256071-74.596026-51.426049-118.251655-69.368654 0 0 2.543046 483.461369 0 499.002208l257.130242-257.130243c-23.169978-49.024283-56.653422-95.364238-95.222958-133.933775m113.165563 174.905078S644.238411 668.821192 631.381898 676.591611h362.666667c17.942605-51.426049 28.256071-108.07947 28.256071-162.048565 0-20.626932 0-38.569536-2.543047-56.653421-7.770419-48.741722-20.626932-92.538631-36.02649-133.651214M479.646799 715.161148l257.130243 257.130243c48.883002-25.713024 95.222958-56.653422 133.792494-95.222958 46.339956-46.339956 82.366446-100.309051 108.079471-159.505519 0-2.401766-483.602649 0.14128-499.002208-2.401766m-133.792494-82.366446v362.666667c72.05298 23.169978 146.649007 33.483444 221.245033 23.169978 46.339956-5.086093 89.995585-15.399558 131.108168-33.483444 2.684327 2.684327-342.039735-339.355408-352.353201-352.353201m-35.88521-149.050773l-257.130243 257.130243c5.086093 10.313466 10.313466 20.626932 15.399559 28.256071 30.799117 56.653422 74.596026 105.395143 123.479028 143.96468 36.02649 28.256071 74.596026 51.426049 118.251656 69.509934 0 0-2.684327-483.461369 0-498.860928M19.214128 380.750552C6.357616 424.547461 1.271523 468.203091 1.271523 512c0 20.626932 0 38.569536 2.543047 56.512141 5.086093 46.339956 15.399558 89.995585 33.483443 131.108168 0 0 339.496689-344.582781 352.353201-352.353201H26.984547c-2.543046 12.997792-5.086093 23.311258-7.770419 33.483444M255.85872 72.19426c-38.569536 23.169978-74.596026 48.883002-105.395144 79.68212-46.339956 46.339956-82.366446 100.309051-108.07947 159.505518 0 0 483.461369-2.543046 499.002207 0l-257.130242-257.130242c-10.313466 7.629139-20.626932 12.856512-28.397351 17.942604" p-id="18127" fill="#1296db"></path></svg>