<?xml version="1.0" standalone="no"?><!DOCTYPE svg PUBLIC "-//W3C//DTD SVG 1.1//EN" "http://www.w3.org/Graphics/SVG/1.1/DTD/svg11.dtd"><svg t="1583137026058" class="icon" viewBox="0 0 1024 1024" version="1.1" xmlns="http://www.w3.org/2000/svg" p-id="22437" width="128" height="128" xmlns:xlink="http://www.w3.org/1999/xlink"><defs><style type="text/css"></style></defs><path d="M171.763 512c0 187.908 152.33 340.238 340.237 340.238 187.908 0 340.237-152.33 340.237-340.238 0-187.907-152.33-340.237-340.237-340.237S171.763 324.093 171.763 512z" fill="#FFFFFF" p-id="22438"></path><path d="M344.569 442.105V120.64c-103.38 43.972-185.802 127.975-227.703 232.3l227.699 227.455 0.004-138.289z" fill="#AFE164" p-id="22439"></path><path d="M442.022 344.753l227.699-227.455C620.686 97.586 567.254 86.67 511.243 86.67c-59.205 0-115.52 12.13-166.674 33.969v321.466l97.453-97.352z" fill="#D7E664" p-id="22440"></path><path d="M902.276 344.753H580.464l97.453 97.352 227.699 227.45c19.733-48.978 30.66-102.353 30.66-158.303 0-59.141-12.144-115.396-34-166.5z" fill="#FFAA64" p-id="22441"></path><path d="M677.917 580.399v321.467c103.371-43.978 185.797-127.981 227.694-232.306L677.917 442.105V580.4z" fill="#FF6469" p-id="22442"></path><path d="M580.464 677.748L352.76 905.2c49.034 19.712 102.466 30.628 158.482 30.628 59.2 0 115.515-12.13 166.674-33.962V580.399l-97.453 97.349z" fill="#C3B4FA" p-id="22443"></path><path d="M442.022 677.748H120.211c44.02 103.26 128.112 185.598 232.55 227.45l227.7-227.45H442.022z" fill="#7DD2F0" p-id="22444"></path><path d="M344.569 580.399l-227.703-227.46c-19.732 48.983-30.66 102.358-30.66 158.313 0 59.137 12.144 115.391 34.005 166.496h321.812l-97.454-97.349z" fill="#7DE6C3" p-id="22445"></path><path d="M580.464 344.753h321.812c-44.025-103.265-128.118-185.604-232.555-227.455L442.022 344.753h138.442z" fill="#FFE669" p-id="22446"></path></svg>