<?xml version="1.0" standalone="no"?><!DOCTYPE svg PUBLIC "-//W3C//DTD SVG 1.1//EN" "http://www.w3.org/Graphics/SVG/1.1/DTD/svg11.dtd"><svg t="1584677129526" class="icon" viewBox="0 0 1024 1024" version="1.1" xmlns="http://www.w3.org/2000/svg" p-id="1154" xmlns:xlink="http://www.w3.org/1999/xlink" width="200" height="200"><defs><style type="text/css"></style></defs><path d="M819.2 283.569231C748.307692 212.676923 653.784615 165.415385 551.384615 157.538462V78.769231h78.769231c23.630769 0 39.384615-15.753846 39.384616-39.384616S653.784615 0 630.153846 0H393.846154c-23.630769 0-39.384615 15.753846-39.384616 39.384615s15.753846 39.384615 39.384616 39.384616h78.769231v78.769231c-220.553846 23.630769-393.846154 204.8-393.846154 433.230769 0 236.307692 196.923077 433.230769 433.230769 433.230769S945.230769 827.076923 945.230769 590.769231c0-118.153846-47.261538-228.430769-126.030769-307.2zM512 945.230769C315.076923 945.230769 157.538462 787.692308 157.538462 590.769231S315.076923 236.307692 512 236.307692c94.523077 0 181.169231 39.384615 244.184615 102.4 63.015385 63.015385 110.276923 157.538462 110.276923 252.061539C866.461538 787.692308 708.923077 945.230769 512 945.230769z" fill="#1492FF" p-id="1155"></path><path d="M685.292308 638.030769L551.384615 567.138462V393.846154c0-23.630769-15.753846-39.384615-39.384615-39.384616S472.615385 370.215385 472.615385 393.846154v196.923077c0 15.753846 7.876923 31.507692 23.630769 31.507692l157.538461 78.769231c15.753846 7.876923 39.384615 0 55.138462-15.753846 7.876923-15.753846 0-39.384615-23.630769-47.261539z" fill="#1492FF" p-id="1156"></path></svg>