<?xml version="1.0" standalone="no"?><!DOCTYPE svg PUBLIC "-//W3C//DTD SVG 1.1//EN" "http://www.w3.org/Graphics/SVG/1.1/DTD/svg11.dtd"><svg t="1585365408881" class="icon" viewBox="0 0 1024 1024" version="1.1" xmlns="http://www.w3.org/2000/svg" p-id="9387" width="64" height="64" xmlns:xlink="http://www.w3.org/1999/xlink"><defs><style type="text/css"></style></defs><path d="M512.875 654.467c190.624 0 370.383 82.922 493.185 227.501 19.409 22.799 16.818 56.542-5.892 76.833-9.285 8.299-21.518 12.869-34.441 12.869-16.177 0-31.619-6.879-42.37-18.874-103.779-120.911-253.908-190.317-411.791-190.317-159.014 0-309.15 69.418-411.911 190.457-10.371 12.179-25.225 19.171-40.752 19.171-12.731 0-25.029-4.726-34.63-13.307-11.455-9.73-18.231-22.923-19.216-37.273-0.958-14.015 3.733-27.553 13.205-38.126 124.924-145.531 305.168-228.935 494.614-228.935zM822.034 375.472c-49.521 0-91.355-42.822-91.355-93.508v-136.554c0-50.691 41.833-93.518 91.355-93.518s91.355 42.826 91.355 93.518v136.555c0 51.559-40.979 93.507-91.355 93.507zM202.063 375.472c-49.517 0-91.351-42.822-91.351-93.508v-136.554c0-50.691 41.833-93.518 91.351-93.518 49.526 0 91.367 42.826 91.367 93.518v136.555c0 50.685-41.841 93.507-91.367 93.507z" p-id="9388" fill="#e09854"></path></svg>