<?xml version="1.0" standalone="no"?><!DOCTYPE svg PUBLIC "-//W3C//DTD SVG 1.1//EN" "http://www.w3.org/Graphics/SVG/1.1/DTD/svg11.dtd"><svg t="1582527006852" class="icon" viewBox="0 0 1271 1024" version="1.1" xmlns="http://www.w3.org/2000/svg" p-id="13036" xmlns:xlink="http://www.w3.org/1999/xlink" width="59.578125" height="48"><defs><style type="text/css"></style></defs><path d="M1061.291453 287.786594c30.880528-30.886355 30.766906-80.993832-0.113622-111.993809L909.794924 24.529327c-31.001434-30.995607-81.108911-30.995607-111.989439-0.113622L643.628633 178.471651l263.139274 263.724867 154.523546-154.409924zM181.332605 640.655514a141.513782 141.513782 0 0 0-34.960737 57.567224l-65.2615 238.43223c-13.053465 41.486742 26.101104 80.641311 67.587845 67.593672l238.43223-65.2615c21.680027-6.872698 41.486742-18.759349 57.567224-34.845658l59.321088-59.315261-263.024195-263.838489-59.661955 59.667782zM368.949403 41.896074c-33.793923-33.79538-88.561375-33.79538-122.362582 0l-142.756344 142.756344c-33.793923 33.793923-33.793923 88.567202 0 122.362581l67.595129 67.587846 125.389598-125.509047c16.779697-16.894776 44.167065-16.894776 60.948219 0 16.779697 16.899146 16.779697 44.167065 0 61.067668l-125.389598 125.509047 61.061841 61.061842 74.467828-74.695073c16.779697-16.900603 44.167065-16.900603 60.948219 0 16.779697 16.89332 16.779697 44.167065 0 61.061842l-74.469284 74.700899 60.948219 60.948219 125.275975-125.395425c16.786981-16.894776 44.168522-16.894776 60.948219 0 16.786981 16.899146 16.786981 44.167065 0 61.066211l-125.156526 125.391055 61.061841 61.066212 0.585592-0.585593 73.882236-73.995857c16.781154-16.899146 44.168522-16.899146 60.948218 0 16.781154 16.894776 16.781154 44.168522 0 61.061841L598.993968 801.35837c-0.119449 0.113622-0.352521 0.346694-0.579765 0.466143l60.948219 60.948219 125.156526-125.275975c16.779697-16.899146 44.167065-16.899146 60.948219 0 16.779697 16.900603 16.779697 44.167065 0 61.061841l-125.156526 125.275976L793.725276 997.255036c33.793923 33.79538 88.568658 33.79538 122.362581 0l142.756345-142.756345c33.793923-33.793923 33.793923-88.567202 0-122.362581L368.949403 41.896074z m0 0" fill="#fa5f75" p-id="13037"></path></svg>