<?xml version="1.0" standalone="no"?><!DOCTYPE svg PUBLIC "-//W3C//DTD SVG 1.1//EN" "http://www.w3.org/Graphics/SVG/1.1/DTD/svg11.dtd"><svg t="1582531281698" class="icon" viewBox="0 0 1024 1024" version="1.1" xmlns="http://www.w3.org/2000/svg" p-id="23828" width="20" height="20" xmlns:xlink="http://www.w3.org/1999/xlink"><defs><style type="text/css"></style></defs><path d="M860.416 39.384615 151.473231 39.384615c-21.740308 0-39.384615 17.624615-39.384615 39.384615l0 866.461538c0 21.76 17.644308 39.384615 39.384615 39.384615l708.942769 0c21.740308 0 39.384615-17.624615 39.384615-39.384615L899.800615 78.769231C899.800615 57.009231 882.136615 39.384615 860.416 39.384615zM409.028923 703.507692c-2.067692 1.043692-3.603692 2.048-4.608 3.072l0 110.769231c1.004308 33.851077-20.007385 47.182769-63.074462 39.995077-8.211692-3.072-12.307692-9.747692-12.307692-20.007385 2.048-8.231385 7.699692-11.283692 16.915692-9.275077 19.475692 4.096 28.711385 0.492308 27.687385-10.771692L373.641846 721.92c-1.043692 1.043692-2.579692 2.048-4.608 3.032615-10.259692 5.179077-20.007385 9.275077-29.223385 12.307692-9.216 3.072-15.911385-0.452923-20.007385-10.771692-1.043692-9.235692 3.072-15.891692 12.307692-20.007385 15.379692-6.163692 29.223385-12.307692 41.531077-18.471385l0-93.892923-33.851077 0c-15.379692-11.224615-15.379692-21.996308 0-32.315077l33.851077 0L373.641846 501.956923c0-8.192 5.12-12.8 15.379692-13.843692 10.24 1.043692 15.379692 5.651692 15.379692 13.843692l0 60.002462 24.615385 0c15.379692 10.259692 15.379692 21.031385 0 32.315077l-24.615385 0 0 78.454154c3.072-2.048 7.699692-5.12 13.843692-9.235692 8.192-4.115692 14.848-2.579692 20.007385 4.568615 4.096 7.187692 2.540308 13.843692-4.608 20.046769C429.528615 691.2 421.336615 696.300308 409.028923 703.507692zM682.870154 718.887385l-47.694769 0 0 129.240615c0 10.259692-5.139692 15.931077-15.36 16.915692-10.259692-1.043692-15.379692-6.675692-15.379692-16.915692l0-129.240615-83.062154 0c-6.163692 51.278769-22.567385 95.389538-49.230769 132.312615-7.187692 9.235692-15.379692 11.835077-24.615385 7.739077-8.211692-6.163692-9.235692-13.843692-3.072-23.118769 26.663385-33.851077 42.043077-72.763077 46.158769-116.932923L452.135385 718.887385c-8.211692 0-12.307692-4.608-12.307692-13.843692S443.923692 691.2 452.135385 691.2l41.531077 0c0-7.148308 0-15.379692 0-24.615385l0-81.545846-35.387077 0c-15.379692-10.259692-15.379692-20.007385 0-29.223385l49.230769 0c-8.211692-13.331692-16.423385-25.639385-24.615385-36.923077-5.139692-8.192-3.603692-15.379692 4.608-21.543385 8.192-4.096 15.379692-2.048 21.563077 6.163692 5.12 8.211692 12.307692 20.007385 21.543385 35.387077 4.076308 7.168 5.12 12.819692 3.072 16.896l50.727385 0c12.307692-16.384 23.118769-34.363077 32.354462-53.819077 4.076308-7.168 10.24-8.704 18.471385-4.608 7.168 4.115692 9.728 10.259692 7.699692 18.471385-1.043692 2.048-3.032615 5.651692-6.163692 10.771692-7.187692 15.379692-13.351385 25.659077-18.471385 30.779077l56.930462 0c14.355692 9.235692 14.355692 18.471385 0 27.687385l-39.995077 0L635.234462 691.2l47.694769 0c7.168 0 11.264 4.608 12.307692 13.843692C694.134154 714.259692 690.038154 718.887385 682.870154 718.887385zM760.044308 238.336c-42.653538 80.620308-140.996923 134.163692-253.873231 134.163692-113.683692 0-214.626462-55.217231-254.562462-135.108923-16.64-5.533538-28.711385-21.070769-28.711385-39.561846 0-23.118769 18.747077-41.885538 41.865846-41.885538 23.138462 0 41.865846 18.766769 41.865846 41.885538 0 12.642462-5.730462 23.847385-14.592 31.527385 36.371692 61.735385 119.886769 103.778462 214.153846 103.778462 94.444308 0 176.541538-41.846154 214.567385-105.412923-7.798154-7.601231-12.662154-18.156308-12.662154-29.892923 0-23.138462 18.747077-41.885538 41.865846-41.885538 23.177846 0 41.865846 18.747077 41.865846 41.885538C791.867077 217.442462 778.259692 233.806769 760.044308 238.336z" fill="#d4237a" p-id="23829"></path><path d="M524.406154 666.584615c0 9.235692 0 17.467077 0 24.615385l80.009846 0 0-106.161231L524.406154 585.038769 524.406154 666.584615z" fill="#d4237a" p-id="23830"></path></svg>