<?xml version="1.0" standalone="no"?><!DOCTYPE svg PUBLIC "-//W3C//DTD SVG 1.1//EN" "http://www.w3.org/Graphics/SVG/1.1/DTD/svg11.dtd"><svg t="1582527621898" class="icon" viewBox="0 0 1024 1024" version="1.1" xmlns="http://www.w3.org/2000/svg" p-id="16204" xmlns:xlink="http://www.w3.org/1999/xlink" width="28" height="28"><defs><style type="text/css"></style></defs><path d="M801.3293037 265.39045925c-5.82542222-5.82542222-15.53445925-1.94180741-15.53445925 5.82542223 0 48.54518518 19.41807408 118.45025185-60.19602963 149.51917037 0 0 11.65084445-326.22364445-341.75810371-376.71063703-7.76722963-1.94180741-13.59265185 5.82542222-11.65084444 13.59265185 13.59265185 46.60337778 38.83614815 190.29712592-87.38133334 279.62026666-7.76722963 5.82542222-13.59265185 9.70903703-21.35988148 15.53445926-36.89434075-46.60337778-91.26494815-64.07964445-114.56663703-67.96325926-3.88361482-1.94180741-7.76722963 3.88361482-5.82542223 7.76722964 34.95253333 97.09037037-33.01072592 203.88977778-33.01072592 203.88977778h1.94180741c-44.66157037 66.02145185-62.13783703 143.69374815-31.06891853 254.37677036 0 0 62.13783703 184.4717037 295.15472593 229.13327407l-7.76722963-7.76722963s-141.75194075-143.69374815-79.6141037-310.68918518c34.95253333-89.32314075 108.74121482-137.86832592 108.74121482-137.86832592s-34.95253333 116.50844445 46.60337778 151.46097777c0 0-13.59265185-174.76266667 135.9265185-236.9005037 0 0-17.47626667 91.26494815 58.25422223 198.06435556 77.6722963 108.74121482 130.1010963 242.72592592 27.1853037 330.10725925-3.88361482 1.94180741-5.82542222 5.82542222-9.70903703 7.76722964 114.56663703-29.12711111 186.41351111-95.14856297 234.9586963-161.17001482 73.78868148-102.91579259 106.79940741-333.99087408-89.32314075-547.5896889z" fill="#FF5F5F" p-id="16205"></path></svg>