<?xml version="1.0" standalone="no"?><!DOCTYPE svg PUBLIC "-//W3C//DTD SVG 1.1//EN" "http://www.w3.org/Graphics/SVG/1.1/DTD/svg11.dtd"><svg t="1583136447698" class="icon" viewBox="0 0 1024 1024" version="1.1" xmlns="http://www.w3.org/2000/svg" p-id="3763" xmlns:xlink="http://www.w3.org/1999/xlink" width="32" height="32"><defs><style type="text/css"></style></defs><path d="M889.1 513.6c-64.6 29.2-187.8 57.7-114.5 137 20.8 22.6 63.9 42.7 70.3 76 7.9 41.3-32 104.3-55.5 133.1-71.9 88.5-177.4 92.4-231.8-9.6-28.8-54.1-52.2-120.2-129-89.3-91 36.5-83.3 107-165.1 140.1-68.2 27.6-150.4-27.6-172.4-86.3C70.9 760.3 75 720.2 133 634.2c31-46 62.1-73.8 103.9-106.1 16.8-13 37.3-28.5 43.9-49.3 21.1-66.8-65.4-111.1-50.4-180.5 22-101.9 107.1-69.3 180.4-69.1 36.2 0.1 74.8-2.6 105.8-23.8 33.7-23 52.1-66.2 86.1-88.6 96.1-63.2 168.1 40.4 171.5 167.2 1.3 49 76.8 3.8 121.7-13.7 31.7-12.4 110.4 19.4 121.7 54.8 32.8 103.3-66.8 160.6-128.5 188.5z m67.4 198.7c-37.2 0-67.4-29.8-67.4-66.6s30.2-66.6 67.4-66.6 67.4 29.8 67.4 66.6-30.2 66.6-67.4 66.6zM107.8 525.7C48.3 525.7 0 477.8 0 418.7s48.3-107 107.8-107 107.8 47.9 107.8 107-48.3 107-107.8 107z" p-id="3764" fill="#8a8a8a"></path></svg>