<?xml version="1.0" standalone="no"?><!DOCTYPE svg PUBLIC "-//W3C//DTD SVG 1.1//EN" "http://www.w3.org/Graphics/SVG/1.1/DTD/svg11.dtd"><svg t="1583138014805" class="icon" viewBox="0 0 1024 1024" version="1.1" xmlns="http://www.w3.org/2000/svg" p-id="27612" width="48" height="48" xmlns:xlink="http://www.w3.org/1999/xlink"><defs><style type="text/css"></style></defs><path d="M920.481833 882.6896 375.839389 882.6896c-21.471011 0-38.895869-17.476023-38.895869-38.995129l0-78.590939c0-10.759041 3.793396-19.948331 11.382235-27.563776 7.590885-7.588839 16.778128-11.432377 27.513634-11.432377l544.641421 0c10.733459 0 19.896142 3.843538 27.511587 11.432377 7.588839 7.614421 11.384281 16.804734 11.384281 27.563776l0 78.590939C959.376679 865.213577 941.950797 882.6896 920.481833 882.6896zM920.481833 590.271668 375.839389 590.271668c-21.471011 0-38.895869-17.463744-38.895869-38.995129l0-78.565357c0-10.772344 3.793396-19.959587 11.382235-27.574009 7.590885-7.615445 16.778128-11.42112 27.513634-11.42112l544.641421 0c10.733459 0 19.896142 3.805676 27.511587 11.42112 7.588839 7.614421 11.384281 16.801664 11.384281 27.574009l0 78.565357C959.376679 572.807924 941.950797 590.271668 920.481833 590.271668zM920.481833 297.867038 375.839389 297.867038c-21.471011 0-38.895869-17.463744-38.895869-38.995129l0-78.57866c0-10.759041 3.793396-19.946284 11.382235-27.561729 7.590885-7.626701 16.778128-11.42112 27.513634-11.42112l544.641421 0c10.733459 0 19.896142 3.794419 27.511587 11.42112 7.588839 7.614421 11.384281 16.801664 11.384281 27.561729l0 78.57866C959.376679 280.403295 941.950797 297.867038 920.481833 297.867038zM181.334463 882.6896l-77.816297 0c-21.469987 0-38.896892-17.476023-38.896892-38.995129l0-78.590939c0-10.759041 3.795443-19.948331 11.385305-27.563776 7.614421-7.588839 16.776082-11.432377 27.511587-11.432377l77.816297 0c10.735505 0 19.897166 3.843538 27.486004 11.432377 7.614421 7.614421 11.407817 16.804734 11.407817 27.563776l0 78.590939C220.229309 865.213577 202.805474 882.6896 181.334463 882.6896zM181.334463 590.271668l-77.816297 0c-21.469987 0-38.896892-17.463744-38.896892-38.995129l0-78.565357c0-10.772344 3.795443-19.959587 11.385305-27.574009 7.614421-7.615445 16.776082-11.42112 27.511587-11.42112l77.816297 0c10.735505 0 19.897166 3.805676 27.486004 11.42112 7.614421 7.614421 11.407817 16.801664 11.407817 27.574009l0 78.565357C220.229309 572.807924 202.805474 590.271668 181.334463 590.271668zM181.334463 297.867038l-77.816297 0c-21.469987 0-38.896892-17.463744-38.896892-38.995129l0-78.57866c0-10.759041 3.795443-19.946284 11.385305-27.561729 7.614421-7.626701 16.776082-11.42112 27.511587-11.42112l77.816297 0c10.735505 0 19.897166 3.794419 27.486004 11.42112 7.614421 7.614421 11.407817 16.801664 11.407817 27.561729l0 78.57866C220.229309 280.403295 202.805474 297.867038 181.334463 297.867038z" p-id="27613" fill="#8a8a8a"></path></svg>