<?xml version="1.0" standalone="no"?><!DOCTYPE svg PUBLIC "-//W3C//DTD SVG 1.1//EN" "http://www.w3.org/Graphics/SVG/1.1/DTD/svg11.dtd"><svg class="icon" width="20px" height="20.00px" viewBox="0 0 1024 1024" version="1.1" xmlns="http://www.w3.org/2000/svg"><path fill="#d4237a" d="M853.504 830.976c0 50.176-40.96 91.136-91.136 91.136H124.928V421.376H284.16c3.072 0 5.632 0.512 8.192 1.024 28.672-81.92 68.608-195.584 84.992-232.96 25.6-58.88 48.128-77.824 88.576-86.528 40.448-8.192 168.96 51.2 129.024 209.408-4.096 16.384-9.728 39.424-15.872 64h250.88c50.176 0 68.096 40.96 68.096 91.136l-44.544 363.52zM261.632 466.944h-90.624v409.6h113.664V471.552l1.024-4.096c0-0.512 0 0.512 0 0-5.12-1.536-18.944-0.512-24.064-0.512z m546.304-45.568H523.264l34.304-136.704c18.944-83.968-49.664-134.656-68.096-136.704-13.312-1.536-50.176 5.12-68.096 45.568-12.288 26.624-64.512 171.52-92.16 248.32 0 1.024 0.512 1.536 0.512 2.56v432.128h432.64c25.088 0 45.568-20.48 45.568-45.568l45.568-364.032c0-25.088-20.48-45.568-45.568-45.568z"  /></svg>