<?xml version="1.0" standalone="no"?><!DOCTYPE svg PUBLIC "-//W3C//DTD SVG 1.1//EN" "http://www.w3.org/Graphics/SVG/1.1/DTD/svg11.dtd"><svg t="1582528087983" class="icon" viewBox="0 0 1024 1024" version="1.1" xmlns="http://www.w3.org/2000/svg" p-id="20647" width="25" height="25" xmlns:xlink="http://www.w3.org/1999/xlink"><defs><style type="text/css"></style></defs><path d="M509.470118 367.856941c16.323765-25.901176 34.816-53.970824 47.887058-53.970823 29.394824 1.686588 40.899765 28.069647 34.213648 53.970823h63.307294V295.815529H509.470118v72.041412z m336.534588 360.508235h-116.434824c1.686588 8.011294 0 43.008 0 68.909177-4.818824 35.538824-7.529412 58.307765-35.237647 68.065882-24.395294 9.637647-39.454118 7.228235-139.38447 7.228236-21.865412 0-31.804235-25.178353-31.804236-46.140236 1.686588-17.769412 13.854118-25.961412 36.623059-25.961411h95.11153c1.566118-9.818353 0-72.101647 0-72.101648H481.520941c-17.889882-1.686588-27.708235-17.046588-29.394823-38.189176 1.686588-21.082353 11.504941-32.225882 29.394823-33.912471h173.357177l39.454117-72.101647H540.310588c-17.889882-1.686588-25.298824-18.793412-26.985412-38.128941 0-21.082353 9.035294-32.346353 26.985412-33.972706h232.267294c16.323765 0 25.298824 19.456 26.985412 33.972706 1.566118 12.950588-12.348235 26.804706-26.985412 38.128941l-43.008 72.101647h116.434824c16.263529 1.686588 25.298824 12.890353 26.925176 33.912471-1.686588 21.142588-10.601412 36.502588-26.925176 38.189176z m0-360.809411c17.889882 1.746824 26.925176 19.456 26.925176 40.598588-3.252706 19.335529-13.854118 29.876706-31.804235 31.563294H549.948235c-35.900235 38.791529-75.655529 56.862118-113.182117 92.461177v306.416941c-1.686588 20.841412-9.035294 32.286118-28.672 33.972706-21.263059 0-42.285176-10.661647-43.971765-31.563295v-252.988235c-22.889412 21.082353-33.551059 24.335059-51.440941 9.758118-16.263529-21.082353-13.854118-47.826824 7.408941-65.596235 66.740706-50.176 116.675765-92.16 118.663529-92.461177h-120.470588c-16.384-1.626353-25.178353-12.107294-26.864941-31.563294 0-21.082353 8.071529-38.912 24.395294-40.538353H457.185882c-13.071059-3.192471-19.636706-16.986353-19.636706-36.442353v-35.659294H320.813176c-17.889882-1.626353-27.708235-12.890353-29.394823-33.912471 0-21.082353 9.035294-36.562824 26.985412-38.189176H436.705882v-47.887059c1.746824-14.456471 14.215529-22.528 33.792-24.214588 21.323294 0 39.333647 7.348706 40.96 21.805176v50.296471h143.36v-45.417412c1.686588-16.263529 15.058824-24.997647 36.201412-26.684235 21.323294 1.686588 36.743529 10.420706 38.490353 26.684235v45.417412h118.844235c16.263529 1.626353 24.515765 17.106824 24.515765 38.189176-1.686588 21.022118-10.601412 32.286118-26.925176 33.912471h-118.422589v50.236235c0 12.890353-5.662118 20.239059-13.613176 21.865412h132.035765z" fill="#d4237a" p-id="20648"></path><path d="M266.480941 0H903.529412a120.470588 120.470588 0 0 1 120.470588 120.470588v783.058824a120.470588 120.470588 0 0 1-120.470588 120.470588H70.896941a30.117647 30.117647 0 0 1-21.684706-51.019294l63.066353-65.41553a120.470588 120.470588 0 0 0 33.731765-83.666823V120.470588a120.470588 120.470588 0 0 1 120.470588-120.470588z m-124.687059 963.764706H903.529412a60.235294 60.235294 0 0 0 60.235294-60.235294V120.470588a60.235294 60.235294 0 0 0-60.235294-60.235294H266.480941a60.235294 60.235294 0 0 0-60.235294 60.235294v703.427765a180.705882 180.705882 0 0 1-50.597647 125.470118l-13.854118 14.396235z" fill="#d4237a" p-id="20649"></path></svg>