<?xml version="1.0" standalone="no"?><!DOCTYPE svg PUBLIC "-//W3C//DTD SVG 1.1//EN" "http://www.w3.org/Graphics/SVG/1.1/DTD/svg11.dtd"><svg t="1582527918522" class="icon" viewBox="0 0 1024 1024" version="1.1" xmlns="http://www.w3.org/2000/svg" p-id="19887" xmlns:xlink="http://www.w3.org/1999/xlink" width="28" height="28"><defs><style type="text/css"></style></defs><path d="M88.370096 0m64.204473 0l624.869009 0q64.204473 0 64.204473 64.204473l0 895.591054q0 64.204473-64.204473 64.204473l-624.869009 0q-64.204473 0-64.204473-64.204473l0-895.591054q0-64.204473 64.204473-64.204473Z" fill="#E80000" p-id="19888"></path><path d="M491.181597 427.757188H438.83655A64.204473 64.204473 0 0 1 374.632077 363.552716L88.370096 64.204473A64.204473 64.204473 0 0 1 152.574569 0h624.869009a64.204473 64.204473 0 0 1 64.204473 64.204473l-286.261981 299.348243a64.204473 64.204473 0 0 1-64.204473 64.204472z" fill="#FF4200" p-id="19889"></path><path d="M465.009073 401.99361m-159.488817 0a159.488818 159.488818 0 1 0 318.977635 0 159.488818 159.488818 0 1 0-318.977635 0Z" fill="#FFB400" p-id="19890"></path></svg>