<?xml version="1.0" standalone="no"?><!DOCTYPE svg PUBLIC "-//W3C//DTD SVG 1.1//EN" "http://www.w3.org/Graphics/SVG/1.1/DTD/svg11.dtd"><svg t="1582531216837" class="icon" viewBox="0 0 1024 1024" version="1.1" xmlns="http://www.w3.org/2000/svg" p-id="23230" width="20" height="20" xmlns:xlink="http://www.w3.org/1999/xlink"><defs><style type="text/css"></style></defs><path d="M512 512m-512 0a512 512 0 1 0 1024 0 512 512 0 1 0-1024 0Z" fill="#F04864" p-id="23231"></path><path d="M793.863314 504.393143a15.608686 15.608686 0 0 0-2.574628-8.162743l-86.791315-131.320686a15.477029 15.477029 0 0 0-12.814628-6.875428h-117.321143c-8.484571 0-15.389257 6.9632-15.389257 15.550171v253.176686c0 8.557714 6.890057 15.535543 15.418514 15.535543h31.553829c0 39.248457 31.568457 71.050971 70.480457 71.050971 38.926629 0 70.465829-31.802514 70.480457-71.050971h31.553829a15.506286 15.506286 0 0 0 15.433142-15.550172v-121.899885l-0.029257-0.438858z m-164.395885-4.242286v-94.749257h59.435885l62.654172 94.763886H629.467429v-0.014629z m46.957714 177.664a35.4304 35.4304 0 0 1-35.2256-35.5328c0-19.587657 15.813486-35.5328 35.240228-35.5328 19.412114 0 35.2256 15.945143 35.2256 35.547429 0 19.573029-15.798857 35.518171-35.2256 35.518171zM515.042743 310.652343H250.5728c-11.307886 0-20.465371 9.230629-20.465371 20.626286v290.377142c0 11.381029 9.157486 20.626286 20.450742 20.626286h50.029715c0 39.248457 31.5392 71.050971 70.465828 71.050972 38.912 0 70.465829-31.802514 70.465829-71.050972h73.508571c11.293257 0 20.450743-9.245257 20.450743-20.626286v-290.377142c0-11.395657-9.142857-20.626286-20.450743-20.626286z m-143.9744 367.162514c-19.426743 0-35.240229-15.945143-35.240229-35.5328 0-19.587657 15.813486-35.5328 35.240229-35.5328 19.412114 0 35.240229 15.945143 35.240228 35.547429a35.4304 35.4304 0 0 1-35.254857 35.518171z" fill="#FFFFFF" p-id="23232"></path></svg>