<?xml version="1.0" standalone="no"?><!DOCTYPE svg PUBLIC "-//W3C//DTD SVG 1.1//EN" "http://www.w3.org/Graphics/SVG/1.1/DTD/svg11.dtd"><svg t="1583136233312" class="icon" viewBox="0 0 1365 1024" version="1.1" xmlns="http://www.w3.org/2000/svg" p-id="2106" width="42.65625" height="32" xmlns:xlink="http://www.w3.org/1999/xlink"><defs><style type="text/css"></style></defs><path d="M1067.537067 354.2528c70.724267-77.4656 124.603733-168.3968 77.4656-249.224533-53.879467-87.569067-188.603733-63.982933-282.897067-30.3104-30.3104 53.879467-124.603733 195.328-127.982933 195.328-6.741333 0 20.206933-107.776 26.948266-151.552-47.1552 26.948267-134.724267 97.672533-205.448533 175.138133-6.741333 40.413867-26.948267 111.138133-30.3104 111.138133-6.741333 0-6.741333-40.413867-6.741333-70.724266-20.206933 26.948267-40.413867 53.879467-53.879467 80.827733-40.413867 87.552-77.448533 218.897067-90.9312 296.362667-23.569067 30.3104-80.827733 107.776-90.9312 134.7072-10.103467 30.3104 16.8448 40.413867 33.672533 23.569066 13.4656-13.4656 50.517333-63.982933 80.827734-97.672533 47.1552-23.569067 168.3968-84.189867 286.2592-148.189867-23.569067 0-50.517333-3.362133-50.517334-10.103466s70.724267-20.206933 114.500267-26.948267c94.293333-50.517333 175.121067-101.034667 208.7936-131.345067 10.103467-6.741333 20.206933-16.8448 30.3104-26.948266-37.034667 0-90.9312 3.362133-90.9312-3.362134 3.413333-3.345067 124.637867-53.8624 171.793067-70.690133z m-404.138667 104.3968c-101.034667 97.672533-303.104 323.310933-313.207467 343.517867-13.4656 16.8448-16.8448 16.8448-10.103466 0 13.4656-30.3104 218.914133-306.466133 303.104-390.673067 77.4656-77.4656 218.914133-158.293333 303.104-165.0176 47.1552-3.362133 40.413867 3.362133 0 20.206933-80.827733 26.948267-185.224533 97.672533-282.897067 191.965867z m0 0" fill="#757575" p-id="2107"></path></svg>