<?xml version="1.0" standalone="no"?><!DOCTYPE svg PUBLIC "-//W3C//DTD SVG 1.1//EN" "http://www.w3.org/Graphics/SVG/1.1/DTD/svg11.dtd"><svg t="1582531302619" class="icon" viewBox="0 0 1093 1024" version="1.1" xmlns="http://www.w3.org/2000/svg" p-id="24637" width="21.34765625" height="20" xmlns:xlink="http://www.w3.org/1999/xlink"><defs><style type="text/css"></style></defs><path d="M549.820868 9.455217c-277.98338 0-503.017544 225.506925-503.017544 503.017544 0 208.960295 137.573407 443.922438 404.683287 504.908587 63.349954 14.655586 155.065559-20.328717 135.209603-91.242844-15.128347-53.421976-103.534626-92.188366-7.091413-201.396122 79.423823-89.824561 473.23361 158.847645 473.233611-212.269621 0.472761-277.98338-225.034164-503.017544-503.017544-503.017544z m-327.623269 506.799631c-36.875346 0-66.186519-29.783934-66.186519-67.132041 0-36.875346 29.783934-67.132041 66.186519-67.132041 36.875346 0 66.186519 29.783934 66.186519 67.132041 0 37.348107-29.783934 67.132041-66.186519 67.132041z m177.285319-188.158818c-43.021237 0-77.532779-34.984303-77.532779-77.53278 0-43.021237 34.984303-77.532779 77.532779-77.532779s77.532779 34.984303 77.532779 77.532779c0 42.548476-34.984303 77.532779-77.532779 77.53278z m274.201293-8.509696c-43.021237 0-77.532779-34.984303-77.53278-77.532779 0-43.021237 34.984303-77.532779 77.53278-77.532779s77.532779 34.984303 77.532779 77.532779c0 42.548476-34.984303 77.532779-77.532779 77.532779z m177.285318 182.012927c-36.875346 0-66.186519-29.783934-66.186519-67.13204 0-36.875346 29.783934-67.132041 66.186519-67.132041 36.875346 0 66.186519 29.783934 66.186519 67.132041 0 36.875346-29.783934 67.132041-66.186519 67.13204z" fill="#EE5E1F" p-id="24638"></path></svg>