<?xml version="1.0" standalone="no"?><!DOCTYPE svg PUBLIC "-//W3C//DTD SVG 1.1//EN" "http://www.w3.org/Graphics/SVG/1.1/DTD/svg11.dtd"><svg t="1585365290592" class="icon" viewBox="0 0 1147 1024" version="1.1" xmlns="http://www.w3.org/2000/svg" p-id="8474" width="71.6875" height="64" xmlns:xlink="http://www.w3.org/1999/xlink"><defs><style type="text/css"></style></defs><path d="M572.825256 1023.999386C357.375786 1024.286105 152.903588 929.504722 14.745591 765.255221a62.504922 62.504922 0 0 1 6.594556-87.306188 58.286045 58.286045 0 0 1 38.993897-14.233591 64.286681 64.286681 0 0 1 48.312291 21.094387c115.527611 136.499118 285.675349 215.592831 465.223401 216.28915 179.916692 0 350.57643-79.278032 465.91972-216.45299a60.211164 60.211164 0 0 1 46.039013-21.790707 57.548765 57.548765 0 0 1 39.116776 15.093751 60.825564 60.825564 0 0 1 21.811187 42.721255 58.572765 58.572765 0 0 1-14.335991 42.721254c-138.751917 164.249501-343.285554 259.481444-559.124145 260.321124L572.825256 1023.999386z m350.53547-662.322803c-57.016286-1.146879-102.768578-47.165412-103.219138-103.813058V106.495936A102.502338 102.502338 0 0 1 870.645238 14.397431a103.976898 103.976898 0 0 1 105.574336 0A102.502338 102.502338 0 0 1 1026.723224 106.495936v151.367589c0.24576 56.995806-45.977572 103.423938-103.362498 103.833538z m-701.050459 0c-57.077726-1.064959-102.911938-47.103972-103.362498-103.813058V106.495936C119.398328 49.78685 165.232541 3.768318 222.310267 2.682878c57.077726 1.085439 102.911938 47.103972 103.362498 103.813058v151.367589c-0.45056 56.709086-46.284772 102.748098-103.362498 103.833538z" fill="#e09854" p-id="8475" data-spm-anchor-id="a313x.7781069.0.i7" class="selected"></path></svg>