<?xml version="1.0" standalone="no"?><!DOCTYPE svg PUBLIC "-//W3C//DTD SVG 1.1//EN" "http://www.w3.org/Graphics/SVG/1.1/DTD/svg11.dtd"><svg t="1585141243685" class="icon" viewBox="0 0 1024 1024" version="1.1" xmlns="http://www.w3.org/2000/svg" p-id="3042" xmlns:xlink="http://www.w3.org/1999/xlink" width="48" height="48"><defs><style type="text/css"></style></defs><path d="M645.907 736.045H378.093C328.41 736.045 288 699.27 288 654.08V505.184a31.942 31.942 0 0 1 63.891 0V654.08c0 10.106 12.007 18.643 26.24 18.643h267.815c14.208 0 26.24-8.537 26.24-18.643V505.683a31.949 31.949 0 0 1 63.89 0V654.08c-0.076 45.19-40.486 81.965-90.169 81.965z" fill="#FFCA1E" p-id="3043"></path><path d="M242.496 485.869a120.64 120.64 0 0 0 178.432 0 120.64 120.64 0 0 0 178.432 0 120.691 120.691 0 0 0 180.294-2.048A121.094 121.094 0 0 0 992 403.98a31.43 31.43 0 0 0-1.043-7.68 31.437 31.437 0 0 0-2.279-9.914L888.32 149.657A140.851 140.851 0 0 0 758.451 64h-497.69a140.544 140.544 0 0 0-130.643 87.462L36.57 380.052a31.718 31.718 0 0 0-2.368 12.55A31.597 31.597 0 0 0 32 403.98a121.517 121.517 0 0 0 84.947 115.744v299.77A140.96 140.96 0 0 0 258.03 960h502.06a140.96 140.96 0 0 0 141.082-140.518V639.699a32.051 32.051 0 0 0-64.102 0v179.795a76.909 76.909 0 0 1-76.98 76.666H258.03a76.909 76.909 0 0 1-76.973-76.666V521.958a121.14 121.14 0 0 0 61.44-36.09zM96.116 403.98v-0.224l93.362-228.192a76.685 76.685 0 0 1 71.284-47.731h497.69a76.838 76.838 0 0 1 70.854 46.72l98.432 232.281a57.12 57.12 0 0 1-114.183-2.829 32 32 0 0 0-32.051-31.923c-0.64 0-1.229 0.147-1.856 0.186s-1.222-0.186-1.862-0.186a32 32 0 0 0-32.052 31.923 57.165 57.165 0 1 1-114.33 0 32.051 32.051 0 0 0-64.102 0 57.165 57.165 0 1 1-114.323 0 32.051 32.051 0 0 0-64.109 0 57.165 57.165 0 1 1-114.323 0 32.051 32.051 0 0 0-64.102 0 57.165 57.165 0 1 1-114.33-0.025z" fill="#FF6920" p-id="3044"></path></svg>